<svg width="24" height="24" viewBox="0 0 24 24" fill="none" xmlns="http://www.w3.org/2000/svg">
<path d="M11.9988 1.13037C6.23361 1.13037 1.58203 6.01052 1.58203 11.983C1.58203 17.9555 6.23355 22.8698 11.9988 22.8698C17.7641 22.8698 22.4156 18.0236 22.4156 12.0171C22.4156 6.01052 17.7641 1.13037 11.9988 1.13037ZM11.9988 21.1975C11.3764 21.1975 10.8196 21.1635 10.2627 20.9928L9.50933 19.184L8.94818 17.3289C8.83159 16.9435 8.49519 16.6656 8.09469 16.6238L6.46279 16.4537L5.89637 15.8636C5.64017 15.5967 5.25755 15.493 4.90166 15.5941L4.03865 15.8393C3.4818 14.6447 3.21972 13.348 3.21972 11.9828C3.21972 11.3343 3.28529 10.6859 3.44913 10.0034L4.50835 9.77811C4.84767 9.70594 5.12535 9.46307 5.24205 9.13638L5.57846 8.19463L6.1707 8.52467C6.63016 8.78071 7.20942 8.63706 7.49601 8.19602L8.13326 7.21533C8.31731 6.93209 8.34593 6.57507 8.20935 6.26612L7.28165 4.16768C8.65746 3.28041 10.2626 2.73431 11.9987 2.73431C12.3918 2.73431 12.8177 2.76835 13.2107 2.80263L13.8719 4.18056C14.0467 4.54474 13.9852 4.9783 13.716 5.27951L12.3918 6.76145L10.4721 8.46744C10.275 8.64259 10.155 8.8885 10.1384 9.15164L9.96711 11.8518C9.94693 12.1702 10.0798 12.4791 10.3248 12.6833L12.6077 14.586C12.7857 14.7344 12.9067 14.94 12.9499 15.1677L13.3311 17.1762C13.4147 17.6167 13.7813 17.9477 14.2281 17.9861L15.3014 18.0782C15.8355 18.1241 16.3107 17.7406 16.3788 17.2088L16.735 14.4259C16.7648 14.1927 16.8758 13.9776 17.0485 13.8181L19.2724 11.7645C19.5171 11.5386 19.6332 11.2056 19.5821 10.8764L19.3035 9.08244L20.4172 8.60466C20.8102 9.62856 21.0397 10.7888 21.0397 11.9491C20.8432 17.0338 16.8469 21.1975 11.9988 21.1975Z" fill="url(#paint0_linear_2290_68501)"/>
<defs>
<linearGradient id="paint0_linear_2290_68501" x1="11.9357" y1="-9.30453" x2="35.8872" y2="19.6091" gradientUnits="userSpaceOnUse">
<stop stop-color="#365FFA"/>
<stop offset="1" stop-color="#A736E0"/>
</linearGradient>
</defs>
</svg>
