<svg width="16" height="21" viewBox="0 0 16 21" fill="none" xmlns="http://www.w3.org/2000/svg">
<path fill-rule="evenodd" clip-rule="evenodd" d="M7.99996 21H11.2037C12.4487 21 12.8302 20.5014 13.4206 19.094C13.5208 18.8556 13.68 18.4689 13.8715 17.9783H2.12854C2.32004 18.4683 2.4793 18.8556 2.57951 19.094C3.16901 20.5008 3.55135 21 4.7964 21H8.00012H7.99996ZM14.1948 17.1301C15.1494 14.5616 16.4535 10.4526 15.8434 8.54349C15.8262 8.48883 15.8076 8.43477 15.7885 8.38087H0.211518C0.192368 8.43493 0.173697 8.48883 0.15662 8.54349C-0.453468 10.4527 0.850456 14.5616 1.80521 17.1301H14.1953H14.1948ZM15.4172 7.5321C14.4069 5.61368 12.6514 4.55066 12.3746 3.84277C12.0528 3.01954 14.3052 0 14.3052 0H1.6933C1.6933 0 3.94578 3.01954 3.6239 3.84277C3.34735 4.5507 1.59166 5.61309 0.581345 7.5321H15.4172Z" fill="#1976D2"/>
</svg>
