<svg width="32" height="42" viewBox="0 0 32 42" fill="none" xmlns="http://www.w3.org/2000/svg">
<path fill-rule="evenodd" clip-rule="evenodd" d="M15.9999 42H22.4074C24.8975 42 25.6605 41.0028 26.8411 38.188C27.0416 37.7112 27.3601 36.9379 27.7431 35.9566H4.25709C4.64008 36.9366 4.9586 37.7112 5.15902 38.188C6.33802 41.0016 7.1027 42 9.59281 42H16.0002H15.9999ZM28.3896 34.2602C30.2988 29.1233 32.907 20.9052 31.6868 17.087C31.6523 16.9777 31.6153 16.8695 31.577 16.7617H0.423036C0.384737 16.8699 0.347395 16.9777 0.31324 17.087C-0.906936 20.9054 1.70091 29.1233 3.61043 34.2602H28.3906H28.3896ZM30.8344 15.0642C28.8138 11.2274 25.3027 9.10132 24.7492 7.68554C24.1055 6.03909 28.6104 0 28.6104 0H3.38661C3.38661 0 7.89155 6.03909 7.2478 7.68554C6.6947 9.1014 3.18333 11.2262 1.16269 15.0642H30.8344Z" fill="url(#paint0_linear_3470_107970)"/>
<defs>
<linearGradient id="paint0_linear_3470_107970" x1="15.903" y1="-20.16" x2="62.9598" y2="25.0021" gradientUnits="userSpaceOnUse">
<stop stop-color="#148BCE"/>
<stop offset="1" stop-color="#7FF2B4"/>
</linearGradient>
</defs>
</svg>
