<svg width="24" height="24" viewBox="0 0 24 24" fill="none" xmlns="http://www.w3.org/2000/svg">
<path d="M22.1895 11.5678C22.1769 11.2831 22.1523 10.9971 22.1151 10.7101C22.01 9.84725 21.7875 8.99546 21.4531 8.17531C19.8471 4.21141 16.019 1.80176 11.9851 1.80176C10.7132 1.80176 9.42111 2.04131 8.17138 2.54718C2.96105 4.66044 0.438621 10.6211 2.54796 15.835C4.62631 20.9652 10.5123 23.5145 15.6716 21.5191C15.6842 21.5151 15.6909 21.5123 15.7011 21.5089C15.7017 21.5086 15.7023 21.508 15.7032 21.508C15.7361 21.4981 15.7665 21.4858 15.7979 21.4729C19.8528 19.8283 22.3787 15.8398 22.1896 11.5679L22.1895 11.5678ZM16.0848 15.7279C16.2655 15.9241 16.2532 16.2295 16.0568 16.4106C15.5288 16.898 14.9193 17.2836 14.2474 17.5552C13.5767 17.827 12.8726 17.9746 12.1549 17.9931H12.1423C11.8813 17.9931 11.6668 17.7849 11.6597 17.5223C11.6533 17.2556 11.8635 17.0339 12.1303 17.0268C12.7312 17.0118 13.3216 16.8882 13.885 16.6597C14.449 16.4312 14.9592 16.1086 15.4021 15.7C15.5991 15.5197 15.904 15.532 16.0847 15.7279L16.0848 15.7279ZM6.56014 7.51073C6.46486 7.62666 6.32654 7.68663 6.18701 7.68663C6.07912 7.68663 5.97063 7.65034 5.88057 7.57623C5.67434 7.40679 5.64514 7.10205 5.81511 6.89632C6.65788 5.87354 7.75512 5.06843 8.98982 4.56814C10.2244 4.06751 11.575 3.8827 12.889 4.02876C13.1539 4.05859 13.3451 4.29784 13.3153 4.56291C13.2855 4.82799 13.0497 5.01835 12.7814 4.98944C11.6245 4.85874 10.4384 5.02296 9.35253 5.46363C8.26631 5.90368 7.30095 6.61189 6.56022 7.51076L6.56014 7.51073ZM8.27276 8.4351C8.14275 8.4351 8.01243 8.38282 7.91715 8.27888C7.73703 8.08269 7.74933 7.77671 7.94604 7.5962C8.4747 7.10971 9.08262 6.72535 9.75332 6.45344C10.4252 6.18129 11.1303 6.03399 11.8486 6.01554H11.8609C12.1221 6.01554 12.3367 6.22373 12.3437 6.48635C12.3502 6.75296 12.14 6.97468 11.8732 6.98176C11.2711 6.99683 10.6797 7.12045 10.1154 7.34893C9.55292 7.5768 9.043 7.89969 8.59978 8.30779C8.50726 8.39297 8.38985 8.4351 8.27275 8.4351H8.27276ZM9.59684 12.0044C9.59684 10.6763 10.6729 9.59966 12.0004 9.59966C13.3278 9.59966 14.4039 10.6763 14.4039 12.0044C14.4039 13.3326 13.3278 14.4092 12.0004 14.4092C10.6729 14.4092 9.59684 13.3326 9.59684 12.0044ZM18.1859 17.1123C17.3431 18.135 16.2453 18.9408 15.0106 19.4404C14.0514 19.8298 13.023 20.0287 11.9942 20.0287C11.6995 20.0287 11.4047 20.0121 11.1118 19.9795C10.8469 19.9497 10.6557 19.7104 10.6855 19.4454C10.7156 19.1806 10.9529 18.9915 11.2194 19.0188C12.3766 19.1505 13.5623 18.9859 14.6479 18.5447C15.7345 18.1049 16.6998 17.397 17.4406 16.4978C17.6093 16.2921 17.9136 16.2623 18.1201 16.4323C18.3264 16.6018 18.3556 16.9065 18.1859 17.1123L18.1859 17.1123Z" fill="white"/>
</svg>
