<svg width="16" height="16" viewBox="0 0 16 16" fill="none" xmlns="http://www.w3.org/2000/svg">
<path d="M9.95549 15.9999H2.13329C0.959933 15.9999 0 15.0399 0 13.8666V6.04442C0 4.87106 0.959933 3.91113 2.13329 3.91113H9.95549C11.1288 3.91113 12.0888 4.87106 12.0888 6.04442V13.8666C12.0889 15.0401 11.1288 16 9.95561 16L9.95549 15.9999ZM2.13329 5.33328C1.74218 5.33328 1.42225 5.65321 1.42225 6.04432V13.8665C1.42225 14.2576 1.74218 14.5775 2.13329 14.5775H9.95549C10.3466 14.5775 10.6665 14.2576 10.6665 13.8665L10.6667 6.04432C10.6667 5.65321 10.3467 5.33328 9.95561 5.33328H2.13329Z" fill="white"/>
<path d="M13.8656 0H6.04345C4.87009 0 3.91016 0.959929 3.91016 2.13328V3.20001H5.33241V2.13328C5.33241 1.74218 5.65234 1.42224 6.04345 1.42224H13.8656C14.2568 1.42224 14.5767 1.74218 14.5767 2.13328V9.95544C14.5767 10.3465 14.2568 10.6665 13.8656 10.6665H12.7989V12.0887H13.8656C15.039 12.0887 15.9989 11.1288 15.9989 9.95544L15.9991 2.13328C15.9991 0.959929 15.0391 0 13.8658 0H13.8656Z" fill="white"/>
</svg>
