<svg width="32" height="32" viewBox="0 0 32 32" fill="none" xmlns="http://www.w3.org/2000/svg">
<path d="M7.51555 23.0702C7.12503 23.4608 7.12503 24.0939 7.51555 24.4845C7.90607 24.875 8.53924 24.875 8.92976 24.4845L7.51555 23.0702ZM24.4861 8.9281C24.8766 8.53758 24.8766 7.90441 24.4861 7.51389C24.0956 7.12336 23.4624 7.12336 23.0719 7.51389L24.4861 8.9281ZM8.92976 24.4845L24.4861 8.9281L23.0719 7.51389L7.51555 23.0702L8.92976 24.4845Z" fill="white"/>
<path d="M23.0702 24.4845C23.4608 24.875 24.0939 24.875 24.4845 24.4845C24.875 24.0939 24.875 23.4608 24.4845 23.0702L23.0702 24.4845ZM8.9281 7.51389C8.53758 7.12337 7.90441 7.12337 7.51389 7.51389C7.12336 7.90441 7.12336 8.53758 7.51389 8.9281L8.9281 7.51389ZM24.4845 23.0702L8.9281 7.51389L7.51389 8.9281L23.0702 24.4845L24.4845 23.0702Z" fill="white"/>
</svg>
