<svg width="24" height="24" viewBox="0 0 24 24" fill="none" xmlns="http://www.w3.org/2000/svg">
<path d="M12.4285 0C12.4285 0.0726724 12.4285 0.145345 12.4285 0.218017C12.4285 2.9069 12.4285 5.63211 12.4285 8.32099C12.4285 8.35733 12.4285 8.43 12.4285 8.46633C12.4285 8.50267 12.3922 8.53901 12.3559 8.53901C12.1015 8.64802 11.8835 8.75702 11.6291 8.86603C11.3021 9.01138 10.9388 9.15672 10.6117 9.3384C10.212 9.52009 9.81233 9.70177 9.41263 9.88345C9.08561 10.0288 8.75858 10.1741 8.43155 10.3195C8.03186 10.5012 7.63216 10.6828 7.23246 10.8645C6.90543 11.0099 6.57841 11.1552 6.21505 11.3369C5.96069 11.4459 5.67 11.5912 5.41565 11.7003C5.37931 11.7003 5.37931 11.7366 5.34298 11.7003C5.34298 11.7003 5.34298 11.7003 5.30664 11.7003C5.41565 11.5186 5.52466 11.3732 5.63367 11.1915C6.21505 10.2105 6.83276 9.2294 7.41414 8.24832C8.03186 7.19457 8.68591 6.14082 9.30362 5.08707C9.885 4.10599 10.4664 3.12491 11.0478 2.18017C11.4838 1.45345 11.9198 0.76306 12.3195 0.0363362C12.3922 0.0363362 12.3922 0 12.4285 0C12.4285 0 12.3922 0 12.4285 0Z" fill="#8A92B2"/>
<path d="M19.4781 11.6995C18.9331 12.0629 18.3517 12.3899 17.8067 12.717C16.0262 13.7707 14.2821 14.7881 12.5016 15.8419C12.4653 15.8419 12.4653 15.8782 12.4289 15.8782C12.3926 15.8782 12.3926 15.8419 12.3926 15.8419C12.3926 15.8055 12.3926 15.7692 12.3926 15.7329C12.3926 13.371 12.3926 11.0092 12.3926 8.6473C12.3926 8.61096 12.3926 8.57463 12.3926 8.53829C12.3926 8.50195 12.4289 8.50195 12.4653 8.50195C12.6106 8.57463 12.7559 8.6473 12.9376 8.71997C13.3737 8.93799 13.846 9.11967 14.2821 9.33769C14.6818 9.51937 15.0451 9.70105 15.4448 9.84639C15.8445 10.0281 16.2079 10.2098 16.6076 10.3914C16.9346 10.5368 17.298 10.6821 17.625 10.8638C17.952 11.0092 18.3154 11.1545 18.6424 11.3362C18.8968 11.4452 19.1511 11.5905 19.4418 11.6995C19.4418 11.6632 19.4418 11.6995 19.4781 11.6995Z" fill="#454A75"/>
<path d="M12.4274 22.9999C12.4274 22.9999 12.391 22.9999 12.4274 22.9999C12.391 22.9999 12.391 22.9999 12.3547 22.9635C11.628 21.9461 10.9376 20.965 10.2108 19.9476C9.48412 18.9302 8.7574 17.9128 8.03068 16.8954C7.34029 15.9143 6.61356 14.9332 5.92318 13.9158C5.7415 13.6615 5.55981 13.4071 5.37813 13.1528C5.37813 13.1164 5.3418 13.1164 5.3418 13.0801C5.37813 13.0801 5.37813 13.1164 5.41447 13.1164C6.39555 13.6978 7.41296 14.2792 8.39404 14.8606C9.52046 15.5509 10.6832 16.205 11.8096 16.8954C11.9913 17.0044 12.2093 17.1134 12.391 17.2224C12.4274 17.2224 12.4274 17.2587 12.4274 17.2951C12.4274 17.3314 12.4274 17.3677 12.4274 17.4041C12.4274 19.2209 12.4274 21.0014 12.4274 22.8182C12.4274 22.8545 12.4274 22.9272 12.4274 22.9999Z" fill="#8A92B2"/>
<path d="M5.3418 11.7012C5.3418 11.7012 5.37813 11.7012 5.3418 11.7012C5.37813 11.7012 5.37813 11.7012 5.3418 11.7012C5.3418 11.7375 5.3418 11.7375 5.3418 11.7012Z" fill="#808080"/>
<path d="M5.37891 11.7371C5.37891 11.7007 5.37891 11.7007 5.37891 11.7371C5.74227 11.5554 6.10563 11.41 6.46899 11.2283C6.94136 11.0103 7.41373 10.7923 7.8861 10.5743C8.24947 10.3926 8.61283 10.2473 8.97619 10.0656C9.4849 9.81124 10.0299 9.59322 10.5386 9.33887C10.902 9.19352 11.2654 9.01184 11.6287 8.8665C11.8831 8.75749 12.1374 8.64848 12.3918 8.50313C12.4281 8.50313 12.4281 8.4668 12.4645 8.4668C12.4645 8.4668 12.4645 8.4668 12.4645 8.50313C12.4645 8.53947 12.4645 8.53947 12.4645 8.57581C12.4645 10.974 12.4645 13.3722 12.4645 15.7704C12.4645 15.8067 12.4645 15.843 12.4645 15.8794C12.4281 15.9157 12.4281 15.8794 12.3918 15.8794C12.2828 15.8067 12.1738 15.7704 12.1011 15.6977C9.8846 14.3896 7.66809 13.0815 5.45158 11.7734C5.41524 11.7371 5.37891 11.7371 5.37891 11.7371Z" fill="#62688F"/>
<path d="M19.4426 13.0801C19.4426 13.1164 19.4426 13.1164 19.4062 13.1528C17.2987 16.1323 15.1912 19.0756 13.0837 22.0551C12.8657 22.3821 12.6477 22.6728 12.4297 22.9999C12.4297 22.9999 12.4297 22.9999 12.4297 22.9635C12.4297 22.9272 12.4297 22.9272 12.4297 22.8909C12.4297 21.0377 12.4297 19.1846 12.4297 17.3314C12.4297 17.2951 12.4297 17.2587 12.4297 17.2224C12.9021 16.9317 13.3744 16.641 13.8468 16.3867C15.6999 15.2966 17.5531 14.2065 19.4062 13.1164C19.4062 13.0801 19.4426 13.0801 19.4426 13.0801Z" fill="#62688F"/>
<path d="M12.4297 8.50149C12.4297 8.46515 12.4297 8.42882 12.4297 8.42882C12.4297 5.66727 12.4297 2.86938 12.4297 0.107829C12.4297 0.0714925 12.4297 0.0351562 12.4297 0.0351562C14.7552 3.88679 17.0807 7.73843 19.4062 11.5901C19.4426 11.6264 19.4789 11.6627 19.4789 11.6991C19.3336 11.6264 19.1882 11.5537 19.0065 11.4811C18.8249 11.4084 18.6432 11.2994 18.4615 11.2267C18.3525 11.1904 18.2435 11.1177 18.0981 11.0814C17.9165 11.0087 17.6984 10.8997 17.5168 10.827C17.4077 10.7907 17.2987 10.718 17.1897 10.6817C16.9354 10.5727 16.681 10.4636 16.4267 10.3546C16.2813 10.282 16.1723 10.2456 16.027 10.173C15.8453 10.1003 15.6636 9.99128 15.4819 9.9186C15.3729 9.88227 15.2639 9.80959 15.1549 9.77326C14.9005 9.66425 14.6462 9.55524 14.3918 9.44623C14.2465 9.37356 14.1375 9.33722 13.9921 9.26455C13.8105 9.19188 13.6288 9.08287 13.4471 9.0102C13.3381 8.93753 13.1927 8.90119 13.0837 8.82852C12.8657 8.71951 12.6477 8.6105 12.4297 8.50149Z" fill="#62688F"/>
</svg>
