<svg width="22" height="16" viewBox="0 0 22 16" fill="none" xmlns="http://www.w3.org/2000/svg">
<path d="M4.17136 12.0908C4.28874 11.9734 4.44526 11.8951 4.6409 11.8951H20.7621C21.0751 11.8951 21.1925 12.2473 20.9969 12.4429L17.8274 15.6124C17.71 15.7298 17.5535 15.8081 17.3579 15.8081H1.23667C0.923641 15.8081 0.806253 15.4559 1.0019 15.2602L4.17136 12.0908Z" fill="#62688F"/>
<path d="M4.17136 0.195646C4.28874 0.0782582 4.48439 0 4.6409 0H20.7621C21.0751 0 21.1925 0.352162 20.9969 0.547807L17.8274 3.71726C17.71 3.83465 17.5535 3.91291 17.3579 3.91291H1.23667C0.923641 3.91291 0.806253 3.56075 1.0019 3.3651L4.17136 0.195646Z" fill="#8A92B2"/>
<path d="M17.8274 6.1047C17.71 5.98732 17.5535 5.90906 17.3579 5.90906H1.23667C0.923641 5.90906 0.806253 6.26122 1.0019 6.45687L4.17136 9.62632C4.28874 9.74371 4.44526 9.82197 4.6409 9.82197H20.7621C21.0751 9.82197 21.1925 9.46981 20.9969 9.27416L17.8274 6.1047Z" fill="#62688F"/>
<path d="M17.8274 6.1047C17.71 5.98732 17.5535 5.90906 17.3579 5.90906H1.23667C0.923641 5.90906 0.806253 6.26122 1.0019 6.45687L4.17136 9.62632C4.28874 9.74371 4.44526 9.82197 4.6409 9.82197H20.7621C21.0751 9.82197 21.1925 9.46981 20.9969 9.27416L17.8274 6.1047Z" fill="#8A92B2" fill-opacity="0.6"/>
</svg>
