<svg width="50" height="50" viewBox="0 0 50 50" fill="none" xmlns="http://www.w3.org/2000/svg">
<mask id="path-1-inside-1_165_20920" fill="white">
<path fill-rule="evenodd" clip-rule="evenodd" d="M8.77888 7.43945H16.9074L13.1819 18.1113H0.628906L8.77888 7.43945ZM32.2078 7.43945L35.9333 18.1113H14.0586L17.7841 7.43945H32.2078ZM49.3683 18.1113L41.2183 7.43945H33.0898L36.8097 18.1113H49.3683ZM23.7461 48.418L0.636719 18.9395H13.185L23.7461 48.418ZM26.248 48.4228L49.3574 18.9395H36.8092L26.248 48.4228ZM25.0004 49.4617L14.0684 18.9395H35.9325L25.0004 49.4617Z"/>
</mask>
<path fill-rule="evenodd" clip-rule="evenodd" d="M8.77888 7.43945H16.9074L13.1819 18.1113H0.628906L8.77888 7.43945ZM32.2078 7.43945L35.9333 18.1113H14.0586L17.7841 7.43945H32.2078ZM49.3683 18.1113L41.2183 7.43945H33.0898L36.8097 18.1113H49.3683ZM23.7461 48.418L0.636719 18.9395H13.185L23.7461 48.418ZM26.248 48.4228L49.3574 18.9395H36.8092L26.248 48.4228ZM25.0004 49.4617L14.0684 18.9395H35.9325L25.0004 49.4617Z" fill="url(#paint0_linear_165_20920)"/>
<path d="M16.9074 7.43945L17.4974 7.64545L17.7875 6.81445H16.9074V7.43945ZM8.77888 7.43945V6.81445H8.46977L8.28216 7.06012L8.77888 7.43945ZM13.1819 18.1113V18.7363H13.6257L13.772 18.3173L13.1819 18.1113ZM0.628906 18.1113L0.132189 17.7319L-0.634814 18.7363H0.628906V18.1113ZM35.9333 18.1113V18.7363H36.8135L36.5234 17.9053L35.9333 18.1113ZM32.2078 7.43945L32.7979 7.23346L32.6516 6.81445H32.2078V7.43945ZM14.0586 18.1113L13.4685 17.9053L13.1784 18.7363H14.0586V18.1113ZM17.7841 7.43945V6.81445H17.3403L17.194 7.23346L17.7841 7.43945ZM41.2183 7.43945L41.7151 7.06012L41.5274 6.81445H41.2183V7.43945ZM49.3683 18.1113V18.7363H50.632L49.865 17.7319L49.3683 18.1113ZM33.0898 7.43945V6.81445H32.2101L32.4997 7.64517L33.0898 7.43945ZM36.8097 18.1113L36.2196 18.317L36.3657 18.7363H36.8097V18.1113ZM0.636719 18.9395V18.3145H-0.6474L0.144845 19.3251L0.636719 18.9395ZM23.7461 48.418L23.2542 48.8036L24.3345 48.2072L23.7461 48.418ZM13.185 18.9395L13.7733 18.7287L13.6249 18.3145H13.185V18.9395ZM49.3574 18.9395L49.8493 19.325L50.6414 18.3145H49.3574V18.9395ZM26.248 48.4228L25.6597 48.212L26.74 48.8083L26.248 48.4228ZM36.8092 18.9395V18.3145H36.3692L36.2208 18.7287L36.8092 18.9395ZM14.0684 18.9395V18.3145H13.1806L13.48 19.1502L14.0684 18.9395ZM25.0004 49.4617L24.412 49.6725L25.0004 51.3153L25.5888 49.6725L25.0004 49.4617ZM35.9325 18.9395L36.5209 19.1502L36.8202 18.3145H35.9325V18.9395ZM16.9074 6.81445H8.77888V8.06445H16.9074V6.81445ZM13.772 18.3173L17.4974 7.64545L16.3173 7.23346L12.5918 17.9053L13.772 18.3173ZM0.628906 18.7363H13.1819V17.4863H0.628906V18.7363ZM8.28216 7.06012L0.132189 17.7319L1.12562 18.4906L9.27559 7.81879L8.28216 7.06012ZM36.5234 17.9053L32.7979 7.23346L31.6177 7.64545L35.3432 18.3173L36.5234 17.9053ZM14.0586 18.7363H35.9333V17.4863H14.0586V18.7363ZM17.194 7.23346L13.4685 17.9053L14.6487 18.3173L18.3742 7.64545L17.194 7.23346ZM32.2078 6.81445H17.7841V8.06445H32.2078V6.81445ZM40.7216 7.81879L48.8716 18.4906L49.865 17.7319L41.7151 7.06012L40.7216 7.81879ZM33.0898 8.06445H41.2183V6.81445H33.0898V8.06445ZM37.3999 17.9056L33.68 7.23373L32.4997 7.64517L36.2196 18.317L37.3999 17.9056ZM49.3683 17.4863H36.8097V18.7363H49.3683V17.4863ZM0.144845 19.3251L23.2542 48.8036L24.238 48.0324L1.12859 18.5539L0.144845 19.3251ZM13.185 18.3145H0.636719V19.5645H13.185V18.3145ZM24.3345 48.2072L13.7733 18.7287L12.5966 19.1502L23.1577 48.6288L24.3345 48.2072ZM48.8655 18.5539L25.7561 48.0372L26.74 48.8083L49.8493 19.325L48.8655 18.5539ZM36.8092 19.5645H49.3574V18.3145H36.8092V19.5645ZM26.8364 48.6335L37.3976 19.1502L36.2208 18.7287L25.6597 48.212L26.8364 48.6335ZM13.48 19.1502L24.412 49.6725L25.5888 49.251L14.6568 18.7287L13.48 19.1502ZM35.9325 18.3145H14.0684V19.5645H35.9325V18.3145ZM25.5888 49.6725L36.5209 19.1502L35.3441 18.7287L24.412 49.251L25.5888 49.6725Z" fill="#0D1023" mask="url(#path-1-inside-1_165_20920)"/>
<defs>
<linearGradient id="paint0_linear_165_20920" x1="24.8509" y1="-12.7312" x2="68.7775" y2="51.4457" gradientUnits="userSpaceOnUse">
<stop stop-color="#36D7FA"/>
<stop offset="1" stop-color="#4B19DA"/>
</linearGradient>
</defs>
</svg>
