<svg width="40" height="40" viewBox="0 0 40 40" fill="none" xmlns="http://www.w3.org/2000/svg">
<rect width="40" height="40" rx="8" fill="#424EC3"/>
<path fill-rule="evenodd" clip-rule="evenodd" d="M20.0008 27.1323C24.1171 27.1323 27.7898 26.0155 30.1933 24.4987C28.4812 26.9683 24.5619 28.6955 20.0008 28.6955V27.1323ZM20.0008 31.441C22.5012 31.438 25.0108 30.9706 27.6377 30.0377C32.8208 28.1972 37.1954 24.6382 32.0918 20.4538C35.616 24.1989 31.5738 27.0818 27.0608 28.7091C24.6629 29.5742 22.3279 30.0077 20.0006 30.0109L20.0008 31.441ZM20.0008 25.6992C25.1854 25.702 30.3696 24.68 26.4735 22.6258C22.8252 20.7022 20.6289 18.3442 20.5353 16.7637C21.431 16.4232 20.7379 15.4856 20.3265 14.9294C20.0434 14.5465 20.044 14.1766 20.0029 14.1779L20.0004 14.1781L20.0008 25.6992ZM20.0008 12.7599V8.65275L20.0054 8.65235C20.0684 8.65034 20.0674 9.21656 20.5009 9.80262C21.1679 10.7041 22.3192 12.2616 20.5505 12.693C20.3604 12.7394 20.1809 12.7607 20.0008 12.7599L20.0008 12.7599ZM20.0008 28.6957C15.4397 28.6957 11.5204 26.9686 9.80877 24.4989C12.2117 26.0156 15.8847 27.1325 20.0008 27.1325V28.6957ZM20.0008 8.65255V12.7597C19.8405 12.7591 19.6799 12.7408 19.5109 12.7073C17.6764 12.3422 18.8059 10.7465 19.4613 9.83512C20.0825 8.97238 19.9186 8.66516 20.0008 8.65252L20.0008 8.65255ZM20.0008 14.178C19.946 14.1852 20.0546 14.3852 19.648 14.9506C19.2486 15.5055 18.5804 16.449 19.4627 16.7678C19.3681 18.3494 17.1768 20.7101 13.5271 22.6253C9.63295 24.6688 14.8171 25.6956 20.0013 25.6986V14.1779L20.0008 14.178ZM20.0008 30.0111C17.5914 30.0143 15.1903 29.5557 12.736 28.6351C8.31341 26.9759 4.43702 24.1425 7.90802 20.4539C2.87833 24.5778 7.05973 28.0759 12.1385 29.953C14.8293 30.948 17.41 31.4436 20.0005 31.4409L20.0008 30.0111Z" fill="white"/>
</svg>
