<svg width="40" height="40" viewBox="0 0 40 40" fill="none" xmlns="http://www.w3.org/2000/svg">
<path fill-rule="evenodd" clip-rule="evenodd" d="M20.0008 25.1323C24.1171 25.1323 27.7898 24.0155 30.1933 22.4987C28.4812 24.9683 24.5619 26.6955 20.0008 26.6955V25.1323ZM20.0008 29.441C22.5012 29.438 25.0108 28.9706 27.6377 28.0377C32.8208 26.1972 37.1954 22.6382 32.0918 18.4538C35.616 22.1989 31.5738 25.0818 27.0608 26.7091C24.6629 27.5742 22.3279 28.0077 20.0006 28.0109L20.0008 29.441ZM20.0008 23.6992C25.1854 23.702 30.3696 22.68 26.4735 20.6258C22.8252 18.7022 20.6289 16.3442 20.5353 14.7637C21.431 14.4232 20.7379 13.4856 20.3265 12.9294C20.0434 12.5465 20.044 12.1766 20.0029 12.1779L20.0004 12.1781L20.0008 23.6992ZM20.0008 10.7599V6.65275L20.0054 6.65235C20.0684 6.65034 20.0674 7.21656 20.5009 7.80262C21.1679 8.70411 22.3192 10.2616 20.5505 10.693C20.3604 10.7394 20.1809 10.7607 20.0008 10.7599L20.0008 10.7599ZM20.0008 26.6957C15.4397 26.6957 11.5204 24.9686 9.80877 22.4989C12.2117 24.0156 15.8847 25.1325 20.0008 25.1325V26.6957ZM20.0008 6.65255V10.7597C19.8405 10.7591 19.6799 10.7408 19.5109 10.7073C17.6764 10.3422 18.8059 8.74648 19.4613 7.83512C20.0825 6.97238 19.9186 6.66516 20.0008 6.65252L20.0008 6.65255ZM20.0008 12.178C19.946 12.1852 20.0546 12.3852 19.648 12.9506C19.2486 13.5055 18.5804 14.449 19.4627 14.7678C19.3681 16.3494 17.1768 18.7101 13.5271 20.6253C9.63295 22.6688 14.8171 23.6956 20.0013 23.6986V12.1779L20.0008 12.178ZM20.0008 28.0111C17.5914 28.0143 15.1903 27.5557 12.736 26.6351C8.31341 24.9759 4.43702 22.1425 7.90802 18.4539C2.87833 22.5778 7.05973 26.0759 12.1385 27.953C14.8293 28.948 17.41 29.4436 20.0005 29.4409L20.0008 28.0111Z" fill="white"/>
</svg>
