<svg width="84" height="40" viewBox="0 0 84 40" fill="none" xmlns="http://www.w3.org/2000/svg">
<path fill-rule="evenodd" clip-rule="evenodd" d="M20.2208 14.8399L21.2074 9.90662L26.1409 8.92005L21.2076 7.93349L20.2208 3L19.234 7.93325L14.3008 8.92005L19.234 9.90662L20.2208 14.8399ZM24.4998 28.0439C25.2557 28.3624 26.1438 28.5217 27.1642 28.5217C28.4168 28.5217 29.4804 28.2625 30.355 27.7442C31.2297 27.2205 31.8937 26.5078 32.3473 25.6062C32.8008 24.7046 33.0275 23.6814 33.0275 22.5369C33.0275 21.7054 32.9034 20.9279 32.655 20.2045C32.4067 19.481 32.0341 18.8439 31.5374 18.2932C31.0407 17.7425 30.4225 17.3133 29.6829 17.0056C28.9432 16.6978 28.082 16.5439 27.0994 16.5439C25.8091 16.5439 24.7239 16.8112 23.8438 17.3457C22.9692 17.8748 22.3078 18.5956 21.8597 19.508C21.4116 20.415 21.1875 21.4274 21.1875 22.545C21.1875 23.344 21.3063 24.1026 21.5438 24.8206C21.7868 25.5387 22.1512 26.1758 22.6371 26.7319C23.1284 27.288 23.7493 27.7253 24.4998 28.0439ZM28.6948 26.3108C28.2521 26.5267 27.7284 26.6347 27.1237 26.6347C26.519 26.6347 25.9926 26.5267 25.5445 26.3108C25.0964 26.0948 24.7239 25.7952 24.4269 25.4118C24.13 25.0285 23.9086 24.5912 23.7628 24.0999C23.6171 23.6086 23.5442 23.0876 23.5442 22.5369C23.5442 21.9862 23.6198 21.4651 23.7709 20.9738C23.9221 20.4771 24.1462 20.0371 24.4431 19.6538C24.7455 19.2704 25.1207 18.9708 25.5688 18.7548C26.0169 18.5389 26.5352 18.4309 27.1237 18.4309C27.696 18.4309 28.2008 18.5362 28.6381 18.7467C29.0809 18.9519 29.4507 19.2435 29.7476 19.6214C30.05 19.9939 30.2794 20.4285 30.436 20.9252C30.5926 21.422 30.6709 21.9592 30.6709 22.5369C30.6709 23.0768 30.598 23.5924 30.4522 24.0837C30.3118 24.575 30.0932 25.015 29.7962 25.4037C29.5047 25.7871 29.1376 26.0894 28.6948 26.3108ZM35.9824 26.497V28.3192H43.5788V26.3351H42.4207H41.1897H39.6672H38.258V26.1407V24.1809V20.6337V18.6253V16.7707H35.9824V18.6253V20.6337V24.5372V26.497ZM46.3428 28.3192V26.497V24.5372V20.6337V18.6253V16.7707H47.76H49.234H50.7565C51.6419 16.7707 52.4275 16.8976 53.1131 17.1513C53.8042 17.4051 54.3846 17.7803 54.8543 18.277C55.3294 18.7683 55.6885 19.3676 55.9314 20.0749C56.1798 20.7822 56.304 21.592 56.304 22.5045C56.304 23.3197 56.196 24.081 55.98 24.7882C55.7641 25.4901 55.4185 26.1056 54.9434 26.6347C54.4683 27.1638 53.842 27.5768 53.0646 27.8738C52.2871 28.1707 51.3396 28.3192 50.222 28.3192H48.8209H47.5657H46.3428ZM48.6185 26.4889H50.222C51.1398 26.4889 51.8714 26.3162 52.4167 25.9706C52.962 25.6197 53.3534 25.1419 53.591 24.5372C53.8285 23.9271 53.9473 23.2387 53.9473 22.4721C53.9473 21.889 53.8771 21.3599 53.7367 20.8848C53.5964 20.4096 53.3804 20.002 53.0889 19.6619C52.8027 19.3163 52.4329 19.0545 51.9794 18.8763C51.5258 18.6928 50.9886 18.601 50.3677 18.601H48.6185V19.7915V21.1439V24.0108V25.3227V26.4889ZM61.9871 28.0439C62.743 28.3624 63.6311 28.5217 64.6515 28.5217C65.9041 28.5217 66.9677 28.2625 67.8423 27.7442C68.717 27.2205 69.3811 26.5078 69.8346 25.6062C70.2881 24.7046 70.5148 23.6814 70.5148 22.5369C70.5148 21.7054 70.3907 20.9279 70.1423 20.2045C69.894 19.481 69.5214 18.8439 69.0247 18.2932C68.528 17.7425 67.9098 17.3133 67.1702 17.0056C66.4305 16.6978 65.5694 16.5439 64.5867 16.5439C63.2964 16.5439 62.2112 16.8112 61.3311 17.3457C60.4565 17.8748 59.7951 18.5956 59.347 19.508C58.8989 20.415 58.6748 21.4274 58.6748 22.545C58.6748 23.344 58.7936 24.1026 59.0311 24.8206C59.2741 25.5387 59.6385 26.1758 60.1244 26.7319C60.6158 27.288 61.2366 27.7253 61.9871 28.0439ZM66.1821 26.3108C65.7394 26.5267 65.2157 26.6347 64.611 26.6347C64.0063 26.6347 63.4799 26.5267 63.0318 26.3108C62.5837 26.0948 62.2112 25.7952 61.9142 25.4118C61.6173 25.0285 61.3959 24.5912 61.2501 24.0999C61.1044 23.6086 61.0315 23.0876 61.0315 22.5369C61.0315 21.9862 61.1071 21.4651 61.2582 20.9738C61.4094 20.4771 61.6335 20.0371 61.9304 19.6538C62.2328 19.2704 62.608 18.9708 63.0561 18.7548C63.5042 18.5389 64.0225 18.4309 64.611 18.4309C65.1833 18.4309 65.6881 18.5362 66.1255 18.7467C66.5682 18.9519 66.938 19.2435 67.2349 19.6214C67.5373 19.9939 67.7667 20.4285 67.9233 20.9252C68.0799 21.422 68.1582 21.9592 68.1582 22.5369C68.1582 23.0768 68.0853 23.5924 67.9395 24.0837C67.7991 24.575 67.5805 25.015 67.2835 25.4037C66.992 25.7871 66.6249 26.0894 66.1821 26.3108ZM73.4697 28.3192V26.497V24.5372V20.6256V18.6253V16.7707H74.6521H76.1098H77.7214C78.6392 16.7707 79.414 16.876 80.0457 17.0865C80.6774 17.2917 81.1525 17.6318 81.471 18.107C81.795 18.5821 81.9569 19.2246 81.9569 20.0344C81.9569 20.6877 81.8274 21.2816 81.5682 21.8161C81.3144 22.3506 80.8987 22.7771 80.321 23.0957C80.0598 23.2386 79.7593 23.3494 79.4194 23.4282L80.5316 24.9745C80.7907 25.3308 81.0634 25.7115 81.3495 26.1164C81.6411 26.5213 81.9245 26.9155 82.1999 27.2988C82.4806 27.6821 82.7263 28.0223 82.9369 28.3192H80.3453C80.0268 27.8549 79.719 27.4095 79.4221 26.9829C79.1305 26.551 78.8444 26.1326 78.5636 25.7277L77.3811 24.0027H75.6887V24.5372V26.497V28.3192H73.4697ZM77.3084 22.2453H75.6887V20.9819V19.0221V18.5848H77.6485C77.8807 18.5848 78.1101 18.6037 78.3369 18.6415C78.569 18.6793 78.7823 18.7575 78.9767 18.8763C79.171 18.9951 79.3249 19.1679 79.4383 19.3946C79.5571 19.6214 79.6165 19.9237 79.6165 20.3017C79.6165 20.7876 79.5301 21.1736 79.3573 21.4597C79.1845 21.7405 78.9254 21.943 78.5798 22.0671C78.2397 22.1859 77.8159 22.2453 77.3084 22.2453ZM6.58941 28.9726C7.71989 29.4105 9.02154 29.6294 10.4944 29.6294C11.0755 29.6294 11.6447 29.6015 12.202 29.5458C12.7673 29.4901 13.3007 29.4145 13.8022 29.3189C14.3117 29.2234 14.7735 29.1199 15.1875 29.0084C15.6014 28.889 15.9438 28.7696 16.2144 28.6502V26.441V24.5064V22.5002V20.7089H13.5634V22.5002V24.5064V26.441V26.9934C13.5038 27.0088 13.4441 27.0236 13.3843 27.0381C12.9623 27.1336 12.5284 27.2052 12.0826 27.253C11.6368 27.3008 11.183 27.3247 10.7212 27.3247C9.61465 27.3247 8.65533 27.1575 7.84329 26.8231C7.03125 26.4887 6.36251 26.023 5.83708 25.4259C5.31164 24.8288 4.92155 24.1402 4.66679 23.36C4.41203 22.5718 4.28465 21.728 4.28465 20.8284C4.28465 19.8173 4.43193 18.9177 4.7265 18.1295C5.02106 17.3334 5.43902 16.6607 5.98038 16.1114C6.52174 15.5621 7.15465 15.1441 7.87911 14.8575C8.61154 14.5709 9.41562 14.4276 10.2913 14.4276C10.8247 14.4276 11.382 14.4833 11.9632 14.5948C12.5443 14.6983 13.1454 14.8655 13.7664 15.0963C14.3953 15.3272 15.0402 15.6297 15.7009 16.0039L15.9278 13.3528C15.6174 13.1936 15.2472 13.0344 14.8173 12.8752C14.3953 12.7159 13.9336 12.5726 13.432 12.4453C12.9305 12.3099 12.3971 12.2024 11.8318 12.1228C11.2666 12.0432 10.6854 12.0034 10.0883 12.0034C8.30504 12.0034 6.76057 12.3816 5.45494 13.1379C4.15727 13.8862 3.15417 14.9252 2.44563 16.2547C1.73708 17.5762 1.38281 19.0968 1.38281 20.8164C1.38281 22.0822 1.58184 23.2525 1.9799 24.3273C2.37796 25.3941 2.9631 26.3255 3.73533 27.1216C4.50757 27.9098 5.45892 28.5268 6.58941 28.9726Z" fill="url(#paint0_linear_811_21920)"/>
<defs>
<linearGradient id="paint0_linear_811_21920" x1="18.3732" y1="-5.87647" x2="53.1389" y2="53.8957" gradientUnits="userSpaceOnUse">
<stop stop-color="#F96C63"/>
<stop offset="1" stop-color="#FCE48F"/>
</linearGradient>
</defs>
</svg>
