<svg width="70" height="70" viewBox="0 0 70 70" fill="none" xmlns="http://www.w3.org/2000/svg">
<circle cx="35.0776" cy="39.5161" r="30.2016" stroke="url(#paint0_linear_2138_67915)" stroke-width="0.564516"/>
<path fill-rule="evenodd" clip-rule="evenodd" d="M55.6381 17.7405L54.0421 25.7212L52.4457 17.7405L44.465 16.1445L52.4457 14.5481L54.0421 6.56738L55.6385 14.5485L63.6192 16.1445L55.6381 17.7405ZM29.0902 56.6883C31.281 57.5369 33.8035 57.9612 36.6578 57.9612C37.784 57.9612 38.8872 57.9072 39.9672 57.7992C41.0626 57.6912 42.0963 57.5446 43.0683 57.3595C44.0557 57.1743 44.9505 56.9738 45.7528 56.7578C46.5551 56.5263 47.2185 56.2949 47.7431 56.0635V51.7821V48.033V44.1451V40.6737H42.6054V44.1451V48.033V51.7821V52.8528C42.49 52.8825 42.3743 52.9113 42.2583 52.9392C41.4406 53.1244 40.5997 53.2632 39.7357 53.3558C38.8717 53.4484 37.9923 53.4947 37.0975 53.4947C34.9529 53.4947 33.0938 53.1707 31.5201 52.5227C29.9464 51.8747 28.6504 50.9721 27.6322 49.815C26.6139 48.6579 25.8579 47.3233 25.3642 45.8113C24.8705 44.2839 24.6236 42.6485 24.6236 40.9051C24.6236 38.9457 24.9091 37.2023 25.4799 35.6749C26.0508 34.1321 26.8608 32.8284 27.9099 31.7638C28.959 30.6992 30.1856 29.8893 31.5895 29.3338C33.009 28.7784 34.5672 28.5007 36.2643 28.5007C37.298 28.5007 38.378 28.6087 39.5043 28.8247C40.6306 29.0253 41.7954 29.3493 42.9988 29.7967C44.2177 30.2441 45.4674 30.8304 46.7479 31.5555L47.1876 26.4179C46.5859 26.1093 45.8685 25.8007 45.0354 25.4922C44.2177 25.1836 43.3228 24.9059 42.3508 24.659C41.3788 24.3968 40.3451 24.1885 39.2497 24.0342C38.1543 23.8799 37.028 23.8028 35.8709 23.8028C32.415 23.8028 29.4219 24.5356 26.8916 26.0013C24.3768 27.4516 22.4328 29.465 21.0597 32.0415C19.6866 34.6026 19 37.5494 19 40.882C19 43.3351 19.3857 45.6031 20.1571 47.6859C20.9285 49.7533 22.0625 51.5584 23.5591 53.1012C25.0556 54.6287 26.8993 55.8243 29.0902 56.6883Z" fill="url(#paint1_linear_2138_67915)"/>
<defs>
<linearGradient id="paint0_linear_2138_67915" x1="17.2954" y1="-11.2904" x2="95.4722" y2="32.5973" gradientUnits="userSpaceOnUse">
<stop stop-color="#F96C63"/>
<stop offset="1" stop-color="#FCE48F"/>
</linearGradient>
<linearGradient id="paint1_linear_2138_67915" x1="28.2957" y1="-10.5639" x2="89.0974" y2="19.0702" gradientUnits="userSpaceOnUse">
<stop stop-color="#F96C63"/>
<stop offset="1" stop-color="#FCE48F"/>
</linearGradient>
</defs>
</svg>
