<svg width="24" height="24" viewBox="0 0 24 24" fill="none" xmlns="http://www.w3.org/2000/svg">
<path d="M22.9891 11.5337C22.9755 11.2265 22.949 10.9181 22.9089 10.6086C22.7955 9.67786 22.5555 8.75912 22.1948 7.87451C20.4627 3.59905 16.3337 1 11.9827 1C10.6109 1 9.21717 1.25839 7.86922 1.80401C2.24936 4.08337 -0.471331 10.5125 1.8038 16.1362C4.0455 21.6697 10.3941 24.4194 15.9589 22.2671C15.9725 22.2627 15.9798 22.2598 15.9907 22.2561C15.9914 22.2558 15.992 22.2551 15.993 22.2551C16.0285 22.2445 16.0613 22.2312 16.0951 22.2173C20.4688 20.4434 23.1932 16.1415 22.9893 11.5338L22.9891 11.5337ZM16.4046 16.0207C16.5995 16.2324 16.5862 16.5617 16.3744 16.7571C15.8049 17.2828 15.1475 17.6987 14.4228 17.9916C13.6994 18.2848 12.9399 18.444 12.1658 18.4639H12.1522C11.8708 18.4639 11.6394 18.2394 11.6317 17.9561C11.6248 17.6685 11.8515 17.4294 12.1393 17.4218C12.7874 17.4055 13.4243 17.2722 14.0319 17.0257C14.6403 16.7793 15.1905 16.4314 15.6683 15.9906C15.8808 15.7962 16.2096 15.8095 16.4046 16.0208L16.4046 16.0207ZM6.13133 7.15769C6.02856 7.28274 5.87937 7.34741 5.72887 7.34741C5.61251 7.34741 5.49548 7.30827 5.39835 7.22834C5.17591 7.04559 5.14441 6.71689 5.32774 6.49499C6.23676 5.39182 7.42024 4.52343 8.75198 3.98382C10.0836 3.44383 11.5403 3.2445 12.9576 3.40204C13.2434 3.43422 13.4496 3.69227 13.4174 3.97818C13.3853 4.26409 13.131 4.46941 12.8416 4.43823C11.5938 4.29726 10.3145 4.47438 9.14321 4.94969C7.97161 5.42432 6.93037 6.1882 6.13142 7.15772L6.13133 7.15769ZM7.97856 8.15472C7.83833 8.15472 7.69777 8.09833 7.595 7.98622C7.40073 7.7746 7.41399 7.44458 7.62616 7.24988C8.19637 6.72515 8.85208 6.31059 9.57549 6.0173C10.3002 5.72376 11.0607 5.56489 11.8354 5.54498H11.8487C12.1305 5.54498 12.3619 5.76953 12.3695 6.0528C12.3765 6.34036 12.1497 6.57951 11.862 6.58714C11.2125 6.6034 10.5747 6.73673 9.96601 6.98318C9.35934 7.22895 8.80934 7.57723 8.33128 8.0174C8.2315 8.10927 8.10486 8.15472 7.97856 8.15472H7.97856ZM9.40672 12.0046C9.40672 10.5721 10.5674 9.41081 11.9992 9.41081C13.431 9.41081 14.5916 10.5721 14.5916 12.0046C14.5916 13.4371 13.431 14.5984 11.9992 14.5984C10.5674 14.5984 9.40672 13.4371 9.40672 12.0046ZM18.6709 17.5139C17.7619 18.6171 16.5777 19.4861 15.246 20.0251C14.2114 20.445 13.1021 20.6596 11.9926 20.6596C11.6746 20.6596 11.3567 20.6417 11.0408 20.6065C10.755 20.5743 10.5488 20.3163 10.5809 20.0304C10.6134 19.7448 10.8694 19.5408 11.1568 19.5703C12.4049 19.7123 13.6839 19.5348 14.8548 19.0589C16.0268 18.5846 17.068 17.821 17.8669 16.8512C18.0489 16.6293 18.3771 16.5971 18.5999 16.7805C18.8224 16.9633 18.8539 17.292 18.6709 17.5139L18.6709 17.5139Z" fill="white"/>
</svg>
