<svg width="50" height="50" viewBox="0 0 50 50" fill="none" xmlns="http://www.w3.org/2000/svg">
<path d="M46.2263 24.0999C46.2 23.5067 46.1488 22.9108 46.0713 22.313C45.8524 20.5153 45.3887 18.7408 44.6921 17.0321C41.3464 8.77402 33.3712 3.75391 24.9671 3.75391C22.3175 3.75391 19.6255 4.25298 17.0219 5.30686C6.16706 9.70949 0.912003 22.1275 5.30647 32.9897C9.63635 43.6778 21.8988 48.9889 32.6473 44.8316C32.6735 44.8233 32.6876 44.8175 32.7088 44.8105C32.71 44.8098 32.7113 44.8085 32.7132 44.8085C32.7818 44.788 32.8451 44.7624 32.9105 44.7355C41.3583 41.3092 46.6205 32.9999 46.2266 24.1L46.2263 24.0999ZM33.5081 32.7667C33.8846 33.1755 33.859 33.8116 33.4499 34.189C32.3498 35.2044 31.08 36.0078 29.6803 36.5735C28.2831 37.1398 26.816 37.4474 25.3209 37.4858H25.2946C24.751 37.4858 24.304 37.0521 24.2893 36.5049C24.2759 35.9495 24.7138 35.4876 25.2697 35.4728C26.5215 35.4415 27.7516 35.1839 28.9253 34.7079C30.1003 34.2319 31.1632 33.5598 32.0859 32.7085C32.4964 32.333 33.1316 32.3587 33.5081 32.7668L33.5081 32.7667ZM13.6652 15.6476C13.4667 15.8891 13.1785 16.0141 12.8878 16.0141C12.663 16.0141 12.437 15.9385 12.2494 15.7841C11.8197 15.4311 11.7589 14.7962 12.113 14.3676C13.8688 12.2368 16.1547 10.5595 18.727 9.51721C21.2991 8.47422 24.1127 8.08919 26.8502 8.39349C27.4022 8.45564 27.8005 8.95407 27.7384 9.50632C27.6763 10.0586 27.1851 10.4551 26.6261 10.3949C24.216 10.1226 21.745 10.4647 19.4827 11.3828C17.2197 12.2996 15.2085 13.775 13.6653 15.6477L13.6652 15.6476ZM17.2331 17.5734C16.9623 17.5734 16.6908 17.4645 16.4923 17.2479C16.117 16.8392 16.1427 16.2017 16.5525 15.8257C17.6538 14.8121 18.9203 14.0114 20.3176 13.4449C21.7174 12.8779 23.1863 12.5711 24.6827 12.5326H24.7084C25.2526 12.5326 25.6996 12.9663 25.7143 13.5135C25.7278 14.0689 25.2898 14.5308 24.734 14.5456C23.4796 14.577 22.2476 14.8345 21.0719 15.3105C19.9001 15.7852 18.8378 16.4579 17.9144 17.3081C17.7217 17.4856 17.4771 17.5734 17.2331 17.5734H17.2331ZM19.9916 25.0095C19.9916 22.2425 22.2335 19.9995 24.999 19.9995C27.7646 19.9995 30.0064 22.2425 30.0064 25.0095C30.0064 27.7765 27.7646 30.0194 24.999 30.0194C22.2335 30.0194 19.9916 27.7765 19.9916 25.0095ZM37.8855 35.6508C36.1297 37.7816 33.8425 39.4602 31.2704 40.5012C29.272 41.3122 27.1294 41.7268 24.9862 41.7268C24.3721 41.7268 23.7581 41.6922 23.1478 41.6243C22.5959 41.5621 22.1976 41.0637 22.2597 40.5114C22.3224 39.9598 22.8168 39.5658 23.3719 39.6228C25.7828 39.897 28.2531 39.5543 30.5147 38.6349C32.7784 37.7188 34.7895 36.244 36.3327 34.3707C36.6843 33.9421 37.3182 33.88 37.7485 34.2343C38.1781 34.5873 38.239 35.2222 37.8855 35.6508L37.8855 35.6508Z" fill="url(#paint0_linear_165_20919)" stroke="#031428" stroke-width="0.3"/>
<defs>
<linearGradient id="paint0_linear_165_20919" x1="15.8949" y1="-12.9399" x2="63.597" y2="25.878" gradientUnits="userSpaceOnUse">
<stop offset="0.0395503" stop-color="#65B4FD"/>
<stop offset="1" stop-color="#AB23EF"/>
</linearGradient>
</defs>
</svg>
