<svg width="24" height="24" viewBox="0 0 24 24" fill="none" xmlns="http://www.w3.org/2000/svg">
<path d="M4.49812 4C4.36609 4.00056 4.23975 4.05313 4.14643 4.14643C4.05312 4.23973 4.00056 4.36607 4 4.49812V10.6993C4.00056 10.8312 4.05313 10.9576 4.14643 11.0509C4.23974 11.1442 4.36608 11.1969 4.49812 11.1973H10.6953C10.8278 11.1979 10.9552 11.1456 11.0494 11.0523C11.1435 10.9589 11.1967 10.8319 11.1972 10.6993V4.49814C11.1967 4.36544 11.1435 4.23854 11.0494 4.14514C10.9552 4.05172 10.8279 3.99949 10.6953 4.00005L4.49812 4ZM13.3018 4C13.1697 4.00022 13.0431 4.05279 12.9496 4.1461C12.8561 4.2394 12.8033 4.36596 12.8028 4.4981V10.6993C12.8033 10.8314 12.8561 10.9579 12.9496 11.0512C13.0431 11.1445 13.1697 11.1971 13.3018 11.1973H19.4981C19.6307 11.1978 19.758 11.1456 19.8521 11.0523C19.9463 10.9589 19.9994 10.8319 20 10.6993V4.4981C19.9994 4.3654 19.9463 4.2385 19.8521 4.1451C19.758 4.05168 19.6307 3.99945 19.4981 4.00001L13.3018 4ZM4.49812 12.8027C4.36609 12.8032 4.23975 12.8559 4.14643 12.9492C4.05312 13.0425 4.00056 13.1688 4 13.3008V19.498C3.99945 19.6307 4.05168 19.758 4.14509 19.8521C4.23851 19.9463 4.3654 19.9994 4.49809 20H10.6952C10.8285 20.0006 10.9565 19.9478 11.0507 19.8536C11.145 19.7593 11.1977 19.6314 11.1971 19.498V13.3008C11.1967 13.1682 11.1434 13.0412 11.0493 12.9478C10.9551 12.8545 10.8278 12.8022 10.6952 12.8027L4.49812 12.8027ZM13.3018 12.8027C13.1697 12.803 13.0431 12.8556 12.9496 12.9489C12.8561 13.0422 12.8033 13.1686 12.8028 13.3007V19.4979C12.8023 19.6308 12.8546 19.7583 12.9482 19.8524C13.0418 19.9466 13.169 19.9997 13.3018 20H19.4981C19.6314 20.0005 19.7593 19.9477 19.8536 19.8535C19.9477 19.7592 20.0005 19.6313 20 19.4979V13.3007C19.9994 13.1682 19.9463 13.0412 19.8521 12.9477C19.758 12.8544 19.6307 12.8022 19.4981 12.8027L13.3018 12.8027Z" fill="white"/>
</svg>
