<svg width="50" height="50" viewBox="0 0 50 50" fill="none" xmlns="http://www.w3.org/2000/svg">
<path d="M9.72695 8.71289C9.45816 8.71403 9.20096 8.82104 9.01099 9.01099C8.82103 9.20093 8.71403 9.45814 8.7129 9.72695V22.3512C8.71404 22.6198 8.82105 22.877 9.01099 23.0669C9.20094 23.2569 9.45814 23.3641 9.72695 23.365H22.3429C22.6128 23.3662 22.8721 23.2598 23.0639 23.0699C23.2554 22.8797 23.3638 22.6211 23.3647 22.3512V9.727C23.3638 9.45685 23.2554 9.19851 23.0639 9.00836C22.8721 8.81819 22.6129 8.71185 22.3429 8.71299L9.72695 8.71289ZM27.6493 8.71289C27.3803 8.71335 27.1226 8.82036 26.9322 9.01031C26.7418 9.20025 26.6344 9.45791 26.6335 9.72691V22.3512C26.6344 22.6202 26.7418 22.8776 26.9322 23.0675C27.1226 23.2575 27.3803 23.3645 27.6493 23.3649H40.2635C40.5334 23.3661 40.7927 23.2597 40.9842 23.0698C41.176 22.8796 41.2842 22.6211 41.2853 22.3512V9.72691C41.2842 9.45676 41.176 9.19843 40.9842 9.00828C40.7927 8.81811 40.5335 8.71177 40.2635 8.71291L27.6493 8.71289ZM9.72695 26.6331C9.45816 26.6342 9.20096 26.7415 9.01099 26.9314C8.82103 27.1214 8.71403 27.3786 8.7129 27.6472V40.2633C8.71176 40.5334 8.8181 40.7927 9.00827 40.9842C9.19844 41.176 9.45677 41.2841 9.72689 41.2853H22.3429C22.6141 41.2864 22.8748 41.179 23.0665 40.9872C23.2585 40.7952 23.3657 40.5348 23.3646 40.2633V27.6472C23.3637 27.3773 23.2553 27.1187 23.0638 26.9286C22.872 26.7386 22.6128 26.6323 22.3428 26.6332L9.72695 26.6331ZM27.6493 26.6331C27.3803 26.6338 27.1226 26.7408 26.9322 26.9308C26.7418 27.1207 26.6344 27.3781 26.6335 27.6471V40.2632C26.6323 40.5336 26.7389 40.7933 26.9295 40.9848C27.1199 41.1766 27.3789 41.2847 27.6493 41.2852H40.2635C40.5348 41.2863 40.7952 41.1789 40.9872 40.9871C41.1789 40.7951 41.2864 40.5347 41.2853 40.2632V27.6471C41.2841 27.3772 41.176 27.1186 40.9842 26.9285C40.7927 26.7385 40.5334 26.6322 40.2635 26.6331L27.6493 26.6331Z" fill="url(#paint0_linear_165_20917)"/>
<defs>
<linearGradient id="paint0_linear_165_20917" x1="15.4988" y1="-2.14458" x2="57.2653" y2="21.3027" gradientUnits="userSpaceOnUse">
<stop stop-color="#F96C63"/>
<stop offset="1" stop-color="#FCE48F"/>
</linearGradient>
</defs>
</svg>
