<svg width="22" height="22" viewBox="0 0 22 22" fill="none" xmlns="http://www.w3.org/2000/svg">
<path fill-rule="evenodd" clip-rule="evenodd" d="M10.9979 0.150391C5.01544 0.150391 0.148438 5.01747 0.148438 10.9999C0.148438 16.9821 5.01551 21.8494 10.9979 21.8494C16.9803 21.8494 21.8474 16.9823 21.8474 10.9991C21.8474 5.01715 16.9803 0.150391 10.9979 0.150391ZM7.96997 17.4118C8.17587 17.5 8.36706 17.549 8.54355 17.5588L14.397 5.60197C14.2499 5.47451 14.0783 5.36666 13.8822 5.27842C13.6861 5.19018 13.4949 5.14115 13.3086 5.13135L7.46993 17.0735C7.6072 17.2108 7.77388 17.3235 7.96997 17.4118ZM4.95502 11.6319C5.44526 12.1711 6.12668 12.4408 6.9993 12.4408C7.87192 12.4408 8.55335 12.176 9.04359 11.6466C9.53382 11.1073 9.77894 10.269 9.77894 9.13167C9.77894 7.99432 9.53382 7.16092 9.04359 6.63147C8.56316 6.09221 7.88663 5.82258 7.01401 5.82258C6.14139 5.82258 5.45996 6.09221 4.96973 6.63147C4.47949 7.16092 4.23438 7.99432 4.23438 9.13167C4.23438 10.2592 4.47459 11.0926 4.95502 11.6319ZM7.54347 11.0583C7.416 11.4113 7.23462 11.5878 6.9993 11.5878C6.7738 11.5878 6.59731 11.4113 6.46985 11.0583C6.34239 10.7053 6.27866 10.0631 6.27866 9.13167C6.27866 8.17081 6.34239 7.5237 6.46985 7.19034C6.59731 6.85698 6.7787 6.6903 7.01401 6.6903C7.24932 6.6903 7.43071 6.85698 7.55817 7.19034C7.68563 7.5237 7.74936 8.161 7.74936 9.10226C7.74936 10.0435 7.68073 10.6955 7.54347 11.0583ZM12.7939 15.9705C13.2743 16.5097 13.9557 16.7793 14.8382 16.7793C15.7108 16.7793 16.3922 16.5097 16.8825 15.9705C17.3727 15.4312 17.6178 14.5978 17.6178 13.4703C17.6178 12.3427 17.3727 11.5093 16.8825 10.9701C16.402 10.4308 15.7206 10.1612 14.8382 10.1612C13.9656 10.1612 13.2841 10.4308 12.7939 10.9701C12.3135 11.4995 12.0732 12.3329 12.0732 13.4703C12.0732 14.5978 12.3135 15.4312 12.7939 15.9705ZM15.3676 15.3822C15.2402 15.7351 15.0637 15.9116 14.8382 15.9116C14.6029 15.9116 14.4215 15.74 14.294 15.3969C14.1666 15.0439 14.1028 14.3968 14.1028 13.4556C14.1028 12.5045 14.1666 11.8623 14.294 11.5289C14.4215 11.1858 14.6029 11.0142 14.8382 11.0142C15.0735 11.0142 15.2549 11.1858 15.3823 11.5289C15.5098 11.8623 15.5735 12.4996 15.5735 13.4408C15.5735 14.3821 15.5049 15.0292 15.3676 15.3822Z" fill="url(#paint0_linear_2150_21066)"/>
<defs>
<linearGradient id="paint0_linear_2150_21066" x1="4.66906" y1="-7.0826" x2="32.4929" y2="8.53743" gradientUnits="userSpaceOnUse">
<stop stop-color="#F96C63"/>
<stop offset="1" stop-color="#FCE48F"/>
</linearGradient>
</defs>
</svg>
