<svg width="24" height="24" viewBox="0 0 24 24" fill="none" xmlns="http://www.w3.org/2000/svg">
<path d="M6.07758 5.51875H7.94486V4.27057C7.94486 3.09562 8.40117 2.02777 9.13589 1.25415C9.87061 0.480532 10.8854 0 12.0005 0C13.1163 0 14.1304 0.480492 14.8651 1.25415C15.5998 2.02777 16.0561 3.09562 16.0561 4.27057V5.51875H17.9234C18.7382 5.51875 19.4792 5.86988 20.0151 6.4342C20.5517 6.99927 20.8845 7.77875 20.8845 8.63676V17.8812C20.8845 18.7393 20.551 19.5195 20.0151 20.0838L19.9838 20.1142C19.4498 20.6613 18.7213 21 17.9228 21H6.07631C5.26145 21 4.5205 20.6489 3.98461 20.0846C3.44797 19.5195 3.11523 18.74 3.11523 17.882V8.63752C3.11523 7.77947 3.4487 6.99925 3.98461 6.43496C4.52125 5.86988 5.26149 5.51951 6.07631 5.51951L6.07758 5.51875ZM8.98985 5.51875H15.0118V4.27057C15.0118 3.39932 14.6726 2.60664 14.1274 2.03178C13.582 1.45751 12.8287 1.10054 12.0013 1.10054C11.1739 1.10054 10.4204 1.45766 9.87445 2.03178C9.32908 2.60605 8.99008 3.39935 8.99008 4.27057V5.51875H8.98985Z" fill="#7F87DB"/>
</svg>
