<svg width="50" height="50" viewBox="0 0 50 50" fill="none" xmlns="http://www.w3.org/2000/svg">
<path d="M46.485 40.8189H44.9089L44.9085 9.00472C44.9085 7.99228 44.1205 7.22129 43.1933 7.22129H24.9277C23.954 7.22129 23.2125 8.0407 23.2125 9.00472V40.8671H21.1264V7.51042C21.1264 6.49798 20.1993 5.77511 19.2722 6.06424L6.19886 10.0171C5.59609 10.2097 5.17896 10.7884 5.17896 11.4633V40.8672L3.55621 40.8669C3.23154 40.8669 3 41.1561 3 41.4452V43.4217C3 43.7593 3.27811 44 3.55621 44H46.4387C46.7633 44 46.9949 43.7108 46.9949 43.4217V41.4452C47.0414 41.108 46.7631 40.8189 46.485 40.8189ZM8.79482 14.2107C8.79482 14.0661 8.93387 13.9215 9.07293 13.9215H17.1858C17.3249 13.9215 17.4639 14.0661 17.4639 14.2107V15.8495C17.4639 15.9941 17.3249 16.1387 17.1858 16.1387L9.07293 16.139C8.93387 16.139 8.79482 15.9944 8.79482 15.8498V14.2107ZM8.79482 19.5132C8.79482 19.3686 8.93387 19.224 9.07293 19.224H17.1858C17.3249 19.224 17.4639 19.3686 17.4639 19.5132V21.152C17.4639 21.2966 17.3249 21.4412 17.1858 21.4412H9.07293C8.93387 21.4412 8.79482 21.2966 8.79482 21.152V19.5132ZM8.79482 24.7673C8.79482 24.6227 8.93387 24.4781 9.07293 24.4781H17.1858C17.3249 24.4781 17.4639 24.6227 17.4639 24.7673V26.4061C17.4639 26.5507 17.3249 26.6953 17.1858 26.6953L9.07293 26.6956C8.93387 26.6956 8.79482 26.551 8.79482 26.4064V24.7673ZM8.79482 30.0213C8.79482 29.8768 8.93387 29.7322 9.07293 29.7322H17.1858C17.3249 29.7322 17.4639 29.8768 17.4639 30.0213V31.6602C17.4639 31.8047 17.3249 31.9493 17.1858 31.9493L9.07293 31.9497C8.93387 31.9497 8.79482 31.8051 8.79482 31.6605V30.0213ZM8.79482 35.2758C8.79482 35.1312 8.93387 34.9866 9.07293 34.9866H17.1858C17.3249 34.9866 17.4639 35.1312 17.4639 35.2758V36.9146C17.4639 37.0592 17.3249 37.2037 17.1858 37.2037H9.07293C8.93387 37.2037 8.79482 37.0592 8.79482 36.9146V35.2758ZM38.3721 11.5598C38.3721 11.2222 38.6502 10.9814 38.9283 10.9814H40.6435C40.9682 10.9814 41.1998 11.2706 41.1998 11.5598V13.3432C41.1998 13.6808 40.9216 13.9215 40.6435 13.9215H38.9283C38.6037 13.9215 38.3721 13.6324 38.3721 13.3432V11.5598ZM38.3721 17.5368C38.3721 17.1992 38.6502 16.9584 38.9283 16.9584H40.6435C40.9682 16.9584 41.1998 17.2476 41.1998 17.5368V19.3202C41.1998 19.6578 40.9216 19.8986 40.6435 19.8986L38.9283 19.8989C38.6037 19.8989 38.3721 19.6097 38.3721 19.3206V17.5368ZM38.3721 23.5622C38.3721 23.2246 38.6502 22.9839 38.9283 22.9839H40.6435C40.9682 22.9839 41.1998 23.273 41.1998 23.5622V25.3456C41.1998 25.6832 40.9216 25.924 40.6435 25.924L38.9283 25.9243C38.6037 25.9243 38.3721 25.6351 38.3721 25.346V23.5622ZM38.3721 29.5876C38.3721 29.25 38.6502 29.0093 38.9283 29.0093H40.6435C40.9682 29.0093 41.1998 29.2984 41.1998 29.5876V31.371C41.1998 31.7086 40.9216 31.9494 40.6435 31.9494L38.9283 31.9497C38.6037 31.9497 38.3721 31.6605 38.3721 31.3714V29.5876ZM32.5772 11.5596C32.5772 11.222 32.8553 10.9812 33.1334 10.9812H34.8486C35.1733 10.9812 35.4048 11.2704 35.4048 11.5596V13.343C35.4048 13.6806 35.1267 13.9214 34.8486 13.9214H33.1334C32.8087 13.9214 32.5772 13.6322 32.5772 13.343V11.5596ZM32.5772 17.5366C32.5772 17.199 32.8553 16.9583 33.1334 16.9583H34.8486C35.1733 16.9583 35.4048 17.2474 35.4048 17.5366V19.32C35.4048 19.6576 35.1267 19.8984 34.8486 19.8984H33.1334C32.8087 19.8984 32.5772 19.6092 32.5772 19.32V17.5366ZM32.5772 23.562C32.5772 23.2244 32.8553 22.9837 33.1334 22.9837H34.8486C35.1733 22.9837 35.4048 23.2729 35.4048 23.562V25.3455C35.4048 25.683 35.1267 25.9238 34.8486 25.9238H33.1334C32.8087 25.9238 32.5772 25.6346 32.5772 25.3455V23.562ZM32.5772 29.5874C32.5772 29.2498 32.8553 29.0091 33.1334 29.0091H34.8486C35.1733 29.0091 35.4048 29.2983 35.4048 29.5874V31.3709C35.4048 31.7084 35.1267 31.9492 34.8486 31.9492H33.1334C32.8087 31.9492 32.5772 31.66 32.5772 31.3709V29.5874ZM26.7823 11.5594C26.7823 11.2218 27.0604 10.9811 27.3385 10.9811H29.0537C29.3784 10.9811 29.6099 11.2702 29.6099 11.5594V13.3428C29.6099 13.6804 29.3318 13.9212 29.0537 13.9212H27.3385C27.0138 13.9212 26.7823 13.632 26.7823 13.3428V11.5594ZM26.7823 17.5364C26.7823 17.1989 27.0604 16.9581 27.3385 16.9581H29.0537C29.3784 16.9581 29.6099 17.2473 29.6099 17.5364V19.3199C29.6099 19.6575 29.3318 19.8982 29.0537 19.8982H27.3385C27.0138 19.8982 26.7823 19.609 26.7823 19.3199V17.5364ZM26.7823 23.5618C26.7823 23.2243 27.0604 22.9835 27.3385 22.9835H29.0537C29.3784 22.9835 29.6099 23.2727 29.6099 23.5618V25.3453C29.6099 25.6829 29.3318 25.9236 29.0537 25.9236H27.3385C27.0138 25.9236 26.7823 25.6344 26.7823 25.3453V23.5618ZM26.7823 29.5873C26.7823 29.2497 27.0604 29.0089 27.3385 29.0089H29.0537C29.3784 29.0089 29.6099 29.2981 29.6099 29.5873V31.3707C29.6099 31.7083 29.3318 31.949 29.0537 31.949H27.3385C27.0138 31.949 26.7823 31.6599 26.7823 31.3707V29.5873Z" fill="url(#paint0_linear_165_20916)"/>
<defs>
<linearGradient id="paint0_linear_165_20916" x1="24.8667" y1="-12.24" x2="64.6128" y2="45.7317" gradientUnits="userSpaceOnUse">
<stop stop-color="#9445FA"/>
<stop offset="1" stop-color="#E25B5B"/>
</linearGradient>
</defs>
</svg>
