<svg width="24" height="24" viewBox="0 0 24 24" fill="none" xmlns="http://www.w3.org/2000/svg">
<path d="M22.7425 20.4094H21.9544L21.9543 4.50236C21.9543 3.99614 21.5602 3.61065 21.0967 3.61065H11.9639C11.477 3.61065 11.1063 4.02035 11.1063 4.50236V20.4335H10.0632V3.75521C10.0632 3.24899 9.59966 2.88755 9.13611 3.03212L2.59943 5.00854C2.29805 5.10487 2.08948 5.3942 2.08948 5.73163V20.4336L1.27811 20.4335C1.11577 20.4335 1 20.578 1 20.7226V21.7108C1 21.8796 1.13905 22 1.27811 22H22.7193C22.8817 22 22.9974 21.8554 22.9974 21.7108V20.7226C23.0207 20.554 22.8816 20.4094 22.7425 20.4094ZM3.89741 7.10534C3.89741 7.03305 3.96694 6.96075 4.03646 6.96075H8.09291C8.16244 6.96075 8.23196 7.03305 8.23196 7.10534V7.92475C8.23196 7.99704 8.16244 8.06933 8.09291 8.06933L4.03646 8.0695C3.96694 8.0695 3.89741 7.99721 3.89741 7.92492V7.10534ZM3.89741 9.7566C3.89741 9.68431 3.96694 9.61202 4.03646 9.61202H8.09291C8.16244 9.61202 8.23196 9.68431 8.23196 9.7566V10.576C8.23196 10.6483 8.16244 10.7206 8.09291 10.7206H4.03646C3.96694 10.7206 3.89741 10.6483 3.89741 10.576V9.7566ZM3.89741 12.3836C3.89741 12.3113 3.96694 12.2391 4.03646 12.2391H8.09291C8.16244 12.2391 8.23196 12.3113 8.23196 12.3836V13.203C8.23196 13.2753 8.16244 13.3476 8.09291 13.3476L4.03646 13.3478C3.96694 13.3478 3.89741 13.2755 3.89741 13.2032V12.3836ZM3.89741 15.0107C3.89741 14.9384 3.96694 14.8661 4.03646 14.8661H8.09291C8.16244 14.8661 8.23196 14.9384 8.23196 15.0107V15.8301C8.23196 15.9024 8.16244 15.9747 8.09291 15.9747L4.03646 15.9748C3.96694 15.9748 3.89741 15.9025 3.89741 15.8303V15.0107ZM3.89741 17.6379C3.89741 17.5656 3.96694 17.4933 4.03646 17.4933H8.09291C8.16244 17.4933 8.23196 17.5656 8.23196 17.6379V18.4573C8.23196 18.5296 8.16244 18.6019 8.09291 18.6019H4.03646C3.96694 18.6019 3.89741 18.5296 3.89741 18.4573V17.6379ZM18.6861 5.77988C18.6861 5.61108 18.8251 5.49071 18.9642 5.49071H19.8218C19.9841 5.49071 20.0999 5.63529 20.0999 5.77988V6.67159C20.0999 6.84039 19.9608 6.96076 19.8218 6.96076H18.9642C18.8018 6.96076 18.6861 6.81618 18.6861 6.67159V5.77988ZM18.6861 8.76839C18.6861 8.5996 18.8251 8.47922 18.9642 8.47922H19.8218C19.9841 8.47922 20.0999 8.62381 20.0999 8.76839V9.66011C20.0999 9.8289 19.9608 9.94928 19.8218 9.94928L18.9642 9.94945C18.8018 9.94945 18.6861 9.80486 18.6861 9.66028V8.76839ZM18.6861 11.7811C18.6861 11.6123 18.8251 11.4919 18.9642 11.4919H19.8218C19.9841 11.4919 20.0999 11.6365 20.0999 11.7811V12.6728C20.0999 12.8416 19.9608 12.962 19.8218 12.962L18.9642 12.9621C18.8018 12.9621 18.6861 12.8176 18.6861 12.673V11.7811ZM18.6861 14.7938C18.6861 14.625 18.8251 14.5046 18.9642 14.5046H19.8218C19.9841 14.5046 20.0999 14.6492 20.0999 14.7938V15.6855C20.0999 15.8543 19.9608 15.9747 19.8218 15.9747L18.9642 15.9749C18.8018 15.9749 18.6861 15.8303 18.6861 15.6857V14.7938ZM15.7886 5.77979C15.7886 5.611 15.9276 5.49062 16.0667 5.49062H16.9243C17.0866 5.49062 17.2024 5.63521 17.2024 5.77979V6.67151C17.2024 6.8403 17.0634 6.96068 16.9243 6.96068H16.0667C15.9044 6.96068 15.7886 6.81609 15.7886 6.67151V5.77979ZM15.7886 8.76831C15.7886 8.59951 15.9276 8.47914 16.0667 8.47914H16.9243C17.0866 8.47914 17.2024 8.62372 17.2024 8.76831V9.66002C17.2024 9.82882 17.0634 9.94919 16.9243 9.94919H16.0667C15.9044 9.94919 15.7886 9.80461 15.7886 9.66002V8.76831ZM15.7886 11.781C15.7886 11.6122 15.9276 11.4918 16.0667 11.4918H16.9243C17.0866 11.4918 17.2024 11.6364 17.2024 11.781V12.6727C17.2024 12.8415 17.0634 12.9619 16.9243 12.9619H16.0667C15.9044 12.9619 15.7886 12.8173 15.7886 12.6727V11.781ZM15.7886 14.7937C15.7886 14.6249 15.9276 14.5045 16.0667 14.5045H16.9243C17.0866 14.5045 17.2024 14.6491 17.2024 14.7937V15.6854C17.2024 15.8542 17.0634 15.9746 16.9243 15.9746H16.0667C15.9044 15.9746 15.7886 15.83 15.7886 15.6854V14.7937ZM12.8911 5.77971C12.8911 5.61091 13.0302 5.49054 13.1692 5.49054H14.0268C14.1892 5.49054 14.305 5.63512 14.305 5.77971V6.67142C14.305 6.84022 14.1659 6.96059 14.0268 6.96059H13.1692C13.0069 6.96059 12.8911 6.81601 12.8911 6.67142V5.77971ZM12.8911 8.76822C12.8911 8.59943 13.0302 8.47905 13.1692 8.47905H14.0268C14.1892 8.47905 14.305 8.62364 14.305 8.76822V9.65994C14.305 9.82873 14.1659 9.94911 14.0268 9.94911H13.1692C13.0069 9.94911 12.8911 9.80452 12.8911 9.65994V8.76822ZM12.8911 11.7809C12.8911 11.6121 13.0302 11.4918 13.1692 11.4918H14.0268C14.1892 11.4918 14.305 11.6363 14.305 11.7809V12.6726C14.305 12.8414 14.1659 12.9618 14.0268 12.9618H13.1692C13.0069 12.9618 12.8911 12.8172 12.8911 12.6726V11.7809ZM12.8911 14.7936C12.8911 14.6248 13.0302 14.5045 13.1692 14.5045H14.0268C14.1892 14.5045 14.305 14.649 14.305 14.7936V15.6853C14.305 15.8541 14.1659 15.9745 14.0268 15.9745H13.1692C13.0069 15.9745 12.8911 15.8299 12.8911 15.6853V14.7936Z" fill="#1976D2"/>
</svg>
