<svg width="24" height="24" viewBox="0 0 24 24" fill="none" xmlns="http://www.w3.org/2000/svg">
<path d="M14.7894 8.20867C14.4821 7.56653 13.7964 7.06588 13.0675 6.80651C12.2781 6.52561 11.3461 6.49557 10.6745 6.96262L10.6744 6.96256L10.6698 6.96596C10.4403 7.13353 10.2767 7.32405 10.2188 7.54516C10.1579 7.77773 10.2272 7.99068 10.352 8.1652C10.4728 8.3341 10.6533 8.48009 10.8528 8.60645C11.055 8.7345 11.292 8.85184 11.5411 8.95817C12.4019 9.32561 13.4808 9.59122 13.9424 9.70484C14.0106 9.72165 14.0654 9.73513 14.1039 9.74512C16.6911 10.4395 18.7867 11.8774 19.6581 13.6027C20.0907 14.4593 20.2236 15.3882 19.9698 16.348C19.7151 17.3113 19.065 18.3275 17.8925 19.341L17.8925 19.341L17.8879 19.3451C16.6914 20.4322 15.2117 21.0188 13.6402 21.215L13.4175 21.2428L13.4212 21.4672L13.4585 23.7127L10.6534 23.7469V21.302V21.1006L10.4566 21.0578C7.7562 20.4694 5.29739 18.7039 3.92627 16.0365C3.90298 15.9874 3.90072 15.9548 3.90309 15.9338C3.90552 15.9122 3.91498 15.884 3.94379 15.8474C4.00758 15.7663 4.14414 15.6722 4.37277 15.5796C4.82278 15.3975 5.50268 15.2706 6.23156 15.1932C6.95502 15.1163 7.70477 15.0902 8.28184 15.1008C8.57099 15.106 8.8117 15.1204 8.98176 15.1411C9.05739 15.1503 9.1132 15.16 9.15072 15.169C10.0994 16.705 11.5729 17.1074 12.6874 17.0005C13.244 16.9472 13.7387 16.7642 14.0361 16.5046C14.1848 16.3747 14.3078 16.2039 14.3294 15.9993C14.3522 15.7839 14.2568 15.5914 14.0907 15.4414C13.8524 15.2108 13.5315 15.03 13.1692 14.8766C12.8031 14.7216 12.3787 14.5882 11.9245 14.4605C11.6294 14.3776 11.3224 14.2972 11.0076 14.2147C10.3414 14.0402 9.64041 13.8565 8.9431 13.6206C6.89803 12.9288 5.04086 11.836 4.61068 9.41969C4.2723 7.48227 4.81868 5.91987 5.86723 4.77454C6.92192 3.62251 8.49882 2.87844 10.2333 2.6232L10.4469 2.59177V2.37587V0.287278L13.2191 0.253052L13.2562 2.38025L13.2598 2.58526L13.4616 2.62187C15.8425 3.054 18.1288 4.38634 19.4512 6.76578L19.4519 6.76709C19.4763 6.81046 19.4805 6.84027 19.4796 6.86044C19.4787 6.88126 19.4716 6.90954 19.4468 6.94778C19.3923 7.03175 19.2714 7.13455 19.0655 7.24513C18.6596 7.46314 18.0381 7.65233 17.3701 7.8049C16.7076 7.95621 16.0203 8.06695 15.496 8.1348C15.2338 8.16872 15.0146 8.19164 14.8613 8.20357C14.835 8.20562 14.811 8.20731 14.7894 8.20867Z" fill="#7F87DB" stroke="#002046" stroke-width="0.5"/>
</svg>
