<svg width="24" height="24" viewBox="0 0 24 24" fill="none" xmlns="http://www.w3.org/2000/svg">
<path fill-rule="evenodd" clip-rule="evenodd" d="M13.3456 16.3456C12.4862 16.7648 11.5206 17 10.5 17C6.91015 17 4 14.0899 4 10.5C4 6.91015 6.91015 4 10.5 4C14.0899 4 17 6.91015 17 10.5C17 12.3386 16.2367 13.9988 15.0096 15.1812L19.4851 19.6567L20.1922 20.3638L18.778 21.778L18.0709 21.0709L13.3456 16.3456ZM15 10.5C15 12.9853 12.9853 15 10.5 15C8.01472 15 6 12.9853 6 10.5C6 8.01472 8.01472 6 10.5 6C12.9853 6 15 8.01472 15 10.5Z" fill="#6E707B"/>
</svg>
