<svg width="24" height="24" viewBox="0 0 24 24" fill="none" xmlns="http://www.w3.org/2000/svg">
<circle cx="11.999" cy="12" r="7.3584" fill="#454A75"/>
<path fill-rule="evenodd" clip-rule="evenodd" d="M14.5717 14.9128C14.7741 14.9128 14.9646 14.8175 15.086 14.6557C15.1883 14.5192 15.2322 14.3479 15.2081 14.179C15.184 14.0102 15.0939 13.858 14.9575 13.7557L12.6431 12.02V7.19851C12.6431 6.96879 12.5206 6.75656 12.3217 6.64176C12.1228 6.52696 11.8777 6.52696 11.6789 6.64176C11.48 6.75656 11.3574 6.96878 11.3574 7.19851V12.3414C11.3574 12.5437 11.4527 12.7343 11.6146 12.8557L14.186 14.7843C14.2972 14.8678 14.4327 14.9128 14.5717 14.9128Z" fill="#8A92B2"/>
<mask id="path-3-inside-1_634_4691" fill="white">
<path d="M12 3.63086C9.78038 3.63086 7.65177 4.5126 6.08212 6.08212C4.51263 7.65173 3.63086 9.78062 3.63086 12C3.63086 14.2194 4.5126 16.3482 6.08212 17.9179C7.65173 19.4874 9.78062 20.3691 12 20.3691C14.2194 20.3691 16.3482 19.4874 17.9179 17.9179C19.4874 16.3483 20.3691 14.2194 20.3691 12C20.3691 10.5308 19.9824 9.08772 19.2479 7.8154C18.5133 6.54307 17.4569 5.48664 16.1845 4.75206C14.9122 4.01748 13.4692 3.63086 12 3.63086Z"/>
</mask>
<path d="M6.08212 6.08212L5.37504 5.37498L5.37498 5.37504L6.08212 6.08212ZM6.08212 17.9179L5.37498 18.625L5.37504 18.625L6.08212 17.9179ZM17.9179 17.9179L18.625 18.625L18.625 18.625L17.9179 17.9179ZM12 2.63086C9.51515 2.63086 7.1322 3.61797 5.37504 5.37498L6.78919 6.78925C8.17134 5.40723 10.0456 4.63086 12 4.63086V2.63086ZM5.37498 5.37504C3.61799 7.13218 2.63086 9.5154 2.63086 12H4.63086C4.63086 10.0458 5.40727 8.17129 6.78925 6.78919L5.37498 5.37504ZM2.63086 12C2.63086 14.4846 3.61796 16.8678 5.37498 18.625L6.78925 17.2108C5.40724 15.8287 4.63086 13.9542 4.63086 12H2.63086ZM5.37504 18.625C7.13218 20.382 9.5154 21.3691 12 21.3691V19.3691C10.0458 19.3691 8.17129 18.5927 6.78919 17.2107L5.37504 18.625ZM12 21.3691C14.4846 21.3691 16.8678 20.382 18.625 18.625L17.2108 17.2107C15.8287 18.5928 13.9542 19.3691 12 19.3691V21.3691ZM18.625 18.625C20.382 16.8678 21.3691 14.4846 21.3691 12H19.3691C19.3691 13.9542 18.5927 15.8287 17.2107 17.2108L18.625 18.625ZM21.3691 12C21.3691 10.3553 20.9362 8.73974 20.1139 7.3154L18.3818 8.3154C19.0287 9.4357 19.3691 10.7064 19.3691 12H21.3691ZM20.1139 7.3154C19.2916 5.89105 18.1089 4.70838 16.6845 3.88603L15.6845 5.61809C16.8048 6.26489 17.735 7.19509 18.3818 8.3154L20.1139 7.3154ZM16.6845 3.88603C15.2602 3.06368 13.6447 2.63086 12 2.63086V4.63086C13.2936 4.63086 14.5642 4.97129 15.6845 5.61809L16.6845 3.88603Z" fill="#8A92B2" mask="url(#path-3-inside-1_634_4691)"/>
</svg>
