<svg width="40" height="40" viewBox="0 0 40 40" fill="none" xmlns="http://www.w3.org/2000/svg">
<circle cx="20" cy="20" r="20" fill="#424EC3"/>
<path fill-rule="evenodd" clip-rule="evenodd" d="M20.0442 6.45508C16.1633 6.45508 13.0766 9.54211 13.0766 13.3347C13.0766 17.2156 16.1636 20.3023 20.0442 20.3023C23.837 20.3023 26.9238 17.2153 26.9238 13.3347C26.9238 9.54189 23.8368 6.45508 20.0442 6.45508Z" fill="#7F87DB"/>
<path fill-rule="evenodd" clip-rule="evenodd" d="M26.6791 22.6074H13.3212C10.3434 22.6074 7.7056 24.3602 6.34458 26.8142C6.08937 27.3399 6.08937 27.8659 6.34458 28.304C9.15237 33.2994 14.3423 36.4547 20.0429 36.4547C25.6585 36.4547 30.8482 33.2996 33.6563 28.304C33.9115 27.8659 33.9115 27.3399 33.6563 26.8142C32.2949 24.3604 29.6574 22.6074 26.6796 22.6074H26.6791Z" fill="#7F87DB"/>
</svg>
