<svg width="24" height="24" viewBox="0 0 24 24" fill="none" xmlns="http://www.w3.org/2000/svg">
<path d="M12 1C5.93263 1 1 5.93263 1 12C1 18.0674 5.93263 23 12 23C18.0674 23 23 18.0674 23 12C23 5.93263 18.0674 1 12 1ZM3.33895 8.34105C4.77486 4.96008 8.10947 2.59789 12 2.59789C15.8905 2.59789 19.2253 4.96004 20.6611 8.34105C20.9389 9.01255 20.3832 9.75368 19.6653 9.68421C18.3916 9.59165 17.1179 9.52203 15.8444 9.47583C15.4507 9.45273 15.0802 9.31364 14.8023 9.05907C14.0612 8.41065 13.0886 8.017 12.0234 8.017C10.9581 8.017 9.98547 8.41067 9.2445 9.05907C8.9434 9.31381 8.573 9.47583 8.20244 9.47583C6.9053 9.52203 5.63158 9.59165 4.35785 9.68421C3.61688 9.75367 3.06105 9.01271 3.33886 8.34105H3.33895ZM8.80421 20.8463C5.67798 19.7115 3.31579 16.9788 2.73684 13.6211C2.62102 12.8799 3.31579 12.301 4.03364 12.5326C7.13676 13.5747 9.45259 16.2149 10.0315 19.4337L10.0779 19.7115C10.2401 20.4525 9.52207 21.1009 8.80417 20.8463L8.80421 20.8463ZM12 13.9916C11.0274 13.9916 10.2168 13.2043 10.2168 12.2084C10.2168 11.2357 11.0042 10.4252 12 10.4252C12.9957 10.4252 13.7832 11.2125 13.7832 12.2084C13.7832 13.2043 12.9726 13.9916 12 13.9916ZM15.1959 20.8463C14.478 21.1011 13.7832 20.4758 13.9221 19.7348L13.9685 19.4569C14.5475 16.2147 16.8632 13.5744 19.9664 12.5323C20.6612 12.3007 21.379 12.9029 21.2632 13.6207C20.6843 16.9786 18.3221 19.7113 15.1958 20.846L15.1959 20.8463Z" fill="white"/>
</svg>
