<svg width="50" height="50" viewBox="0 0 50 50" fill="none" xmlns="http://www.w3.org/2000/svg">
<path d="M25 3.5C13.1411 3.5 3.5 13.1411 3.5 25C3.5 36.8589 13.1411 46.5 25 46.5C36.8589 46.5 46.5 36.8589 46.5 25C46.5 13.1411 36.8589 3.5 25 3.5ZM8.07158 17.8484C10.8781 11.2402 17.3958 6.62316 25 6.62316C32.6042 6.62316 39.1221 11.2401 41.9284 17.8484C42.4715 19.1609 41.3854 20.6095 39.9823 20.4737C37.4927 20.2928 35.0032 20.1567 32.514 20.0664C31.7446 20.0212 31.0203 19.7494 30.4772 19.2518C29.0287 17.9844 27.1277 17.2151 25.0457 17.2151C22.9635 17.2151 21.0625 17.9845 19.6143 19.2518C19.0257 19.7497 18.3018 20.0664 17.5775 20.0664C15.0422 20.1567 12.5526 20.2928 10.0631 20.4737C8.61482 20.6094 7.52842 19.1612 8.07142 17.8484H8.07158ZM18.7537 42.2905C12.6433 40.0726 8.02632 34.7313 6.89474 28.1684C6.66836 26.7198 8.02632 25.5883 9.42939 26.0411C15.4946 28.0778 20.021 33.2381 21.1525 39.5295L21.2432 40.0725C21.5602 41.5208 20.1568 42.7882 18.7536 42.2905L18.7537 42.2905ZM25.0001 28.8926C23.099 28.8926 21.5147 27.3538 21.5147 25.4073C21.5147 23.5062 23.0536 21.9219 25.0001 21.9219C26.9462 21.9219 28.4854 23.4608 28.4854 25.4073C28.4854 27.3538 26.9011 28.8926 25.0001 28.8926ZM31.2465 42.2905C29.8434 42.7884 28.4854 41.5662 28.7569 40.118L28.8475 39.5749C29.9791 33.2379 34.5054 28.0773 40.5707 26.0404C41.9287 25.5877 43.3317 26.7647 43.1054 28.1678C41.9738 34.7309 37.3568 40.072 31.2464 42.2899L31.2465 42.2905Z" fill="url(#paint0_linear_165_20918)"/>
<defs>
<linearGradient id="paint0_linear_165_20918" x1="24.8697" y1="-17.14" x2="71.8307" y2="42.0148" gradientUnits="userSpaceOnUse">
<stop stop-color="#14C3CE"/>
<stop offset="1" stop-color="#E2F27F"/>
</linearGradient>
</defs>
</svg>
