<svg width="50" height="50" viewBox="0 0 50 50" fill="none" xmlns="http://www.w3.org/2000/svg">
<path d="M37.273 16.2549L35.1461 5.19536C35.0577 4.47732 34.3487 3.93896 33.6397 3.93896H16.2713C15.5623 3.93896 14.8534 4.47734 14.765 5.19536L12.727 16.1653C12.1954 19.3961 12.8154 22.7165 14.5882 25.409C16.7151 28.6398 19.6195 30.7038 23.4303 31.0631L23.4301 44.2195C23.4301 44.9376 22.8985 45.5655 22.1896 45.6556L16.6956 46.6428C16.5182 46.6428 16.3415 46.8225 16.3415 47.0917C16.3415 47.3609 16.5189 47.5405 16.7847 47.5405H33.1773C33.4431 47.5405 33.6205 47.3609 33.6205 47.0917C33.6205 46.912 33.4431 46.733 33.2663 46.6428L27.8608 45.6556C27.1518 45.5661 26.6202 44.9375 26.6202 44.2195L26.6191 31.1529C30.3409 30.7941 33.3742 28.7296 35.5013 25.4988C37.1845 22.7168 37.8047 19.3962 37.273 16.2549Z" fill="url(#paint0_linear_296_11036)"/>
<defs>
<linearGradient id="paint0_linear_296_11036" x1="24.9251" y1="-16.9898" x2="71.2889" y2="16.3831" gradientUnits="userSpaceOnUse">
<stop stop-color="#FF3A8D"/>
<stop offset="1" stop-color="#F99E69"/>
</linearGradient>
</defs>
</svg>
