<svg width="24" height="24" viewBox="0 0 24 24" fill="none" xmlns="http://www.w3.org/2000/svg">
<path d="M18.2548 8.20686L17.1709 2.64196C17.1258 2.28066 16.7645 2.00977 16.4032 2.00977H7.55232C7.19101 2.00977 6.82972 2.28066 6.78467 2.64196L5.74613 8.16178C5.47523 9.78746 5.79117 11.4582 6.6946 12.813C7.77847 14.4387 9.25856 15.4773 11.2005 15.6581L11.2004 22.2781C11.2004 22.6394 10.9295 22.9553 10.5682 23.0007L7.76855 23.4974C7.67814 23.4974 7.58805 23.5878 7.58805 23.7233C7.58805 23.8587 7.67846 23.9491 7.81391 23.9491H16.1676C16.303 23.9491 16.3934 23.8587 16.3934 23.7233C16.3934 23.6329 16.303 23.5428 16.2129 23.4974L13.4583 23.0007C13.097 22.9556 12.8261 22.6394 12.8261 22.2781L12.8256 15.7032C14.7222 15.5227 16.2679 14.4839 17.3519 12.8582C18.2096 11.4584 18.5257 9.78754 18.2548 8.20686Z" fill="white"/>
</svg>
